<svg xmlns="http://www.w3.org/2000/svg" viewBox="0 0 1200 680" role="img" aria-label="UAC global zone map">
<style>
.bg{fill:#07090b}.grid{stroke:#1b2228;stroke-width:1}.coast{fill:#10161b;stroke:#6b7378;stroke-width:1.1}.border{fill:none;stroke:#303940;stroke-width:.8;stroke-dasharray:4 5}.green{fill:#39583e;stroke:#8ac08b}.white{fill:#56616b;stroke:#c6d4dc}.yellow{fill:#6a5c2a;stroke:#d9c45d}.red{fill:#642227;stroke:#d25b63}.black{fill:#161616;stroke:#8f8f8f}.mark{fill:#dfd0a8;stroke:#2b2115;stroke-width:1.2}.danger{fill:#d45b62;stroke:#ffe0e0}.label{font-family:Consolas,monospace;font-size:8px;fill:#d7d7d7;letter-spacing:.4px}.tiny{font-size:7px;fill:#9da8ad}.title{font-size:13px;fill:#e5e5e5}.line{stroke:#889096;stroke-width:.8;opacity:.65}</style>
<rect class="bg" width="1200" height="680"/>
<g opacity=".6"><path class="grid" d="M0 0V680"/><path class="grid" d="M60 0V680"/><path class="grid" d="M120 0V680"/><path class="grid" d="M180 0V680"/><path class="grid" d="M240 0V680"/><path class="grid" d="M300 0V680"/><path class="grid" d="M360 0V680"/><path class="grid" d="M420 0V680"/><path class="grid" d="M480 0V680"/><path class="grid" d="M540 0V680"/><path class="grid" d="M600 0V680"/><path class="grid" d="M660 0V680"/><path class="grid" d="M720 0V680"/><path class="grid" d="M780 0V680"/><path class="grid" d="M840 0V680"/><path class="grid" d="M900 0V680"/><path class="grid" d="M960 0V680"/><path class="grid" d="M1020 0V680"/><path class="grid" d="M1080 0V680"/><path class="grid" d="M1140 0V680"/><path class="grid" d="M1200 0V680"/><path class="grid" d="M0 0H1200"/><path class="grid" d="M0 40H1200"/><path class="grid" d="M0 80H1200"/><path class="grid" d="M0 120H1200"/><path class="grid" d="M0 160H1200"/><path class="grid" d="M0 200H1200"/><path class="grid" d="M0 240H1200"/><path class="grid" d="M0 280H1200"/><path class="grid" d="M0 320H1200"/><path class="grid" d="M0 360H1200"/><path class="grid" d="M0 400H1200"/><path class="grid" d="M0 440H1200"/><path class="grid" d="M0 480H1200"/><path class="grid" d="M0 520H1200"/><path class="grid" d="M0 560H1200"/><path class="grid" d="M0 600H1200"/><path class="grid" d="M0 640H1200"/><path class="grid" d="M0 680H1200"/></g>
<text x="32" y="38" class="title">U.A.C GLOBAL ZONE MAP</text><text x="32" y="58" class="tiny">LEGACY CARTOGRAPHY / INCIDENT MARKER MODE</text>
<!-- simplified land masses with internal boundary lines -->
<path class="coast" d="M105 150 L210 105 L335 125 L415 190 L365 255 L420 335 L355 405 L250 380 L205 305 L125 280 Z"/>
<path class="coast" d="M295 410 L365 445 L390 545 L345 625 L280 585 L250 490 Z"/>
<path class="coast" d="M515 155 L650 110 L770 160 L805 245 L710 295 L625 270 L535 300 L470 230 Z"/>
<path class="coast" d="M620 300 L780 310 L945 270 L1085 335 L1110 440 L1000 505 L880 465 L745 500 L650 425 Z"/>
<path class="coast" d="M790 515 L900 535 L935 620 L850 650 L770 600 Z"/>
<path class="coast" d="M970 500 L1080 520 L1120 600 L1040 640 L955 600 Z"/>
<path class="border" d="M170 155 L260 180 L320 250 L300 365"/><path class="border" d="M540 185 L650 220 L760 215"/><path class="border" d="M675 320 L780 385 L890 390 L1010 350"/><path class="border" d="M815 330 L800 455"/><path class="border" d="M930 295 L950 460"/>
<!-- zone patches -->
<rect x="178" y="132" width="132" height="70" rx="8" class="red" opacity=".75"/><text x="185" y="169" class="label">CANADA RED</text>
<rect x="455" y="202" width="86" height="44" rx="6" class="white" opacity=".75"/><text x="462" y="226" class="label">EU WHITE</text>
<rect x="615" y="285" width="74" height="42" rx="6" class="yellow" opacity=".75"/><text x="621" y="309" class="label">ME YELLOW</text>
<rect x="770" y="320" width="88" height="46" rx="6" class="black" opacity=".78"/><text x="777" y="346" class="label">IRAN BLACK</text>
<rect x="870" y="355" width="106" height="62" rx="6" class="black" opacity=".78"/><text x="878" y="389" class="label">INDIA BLACK</text>
<rect x="990" y="520" width="108" height="74" rx="6" class="black" opacity=".78"/><text x="998" y="560" class="label">AUS BLACK</text>
<rect x="828" y="236" width="72" height="36" rx="6" class="red" opacity=".78"/><text x="833" y="258" class="label">LANZHOU</text>
<rect x="920" y="300" width="96" height="38" rx="6" class="red" opacity=".78"/><text x="926" y="323" class="label">GZ-HK RED</text>
<rect x="250" y="250" width="42" height="26" rx="5" class="green" opacity=".85"/><text x="255" y="267" class="label">DC</text>
<rect x="505" y="210" width="40" height="24" rx="5" class="green" opacity=".85"/><text x="510" y="226" class="label">PAR</text>
<rect x="560" y="182" width="42" height="24" rx="5" class="green" opacity=".85"/><text x="566" y="198" class="label">BER</text>
<rect x="1040" y="350" width="42" height="24" rx="5" class="green" opacity=".85"/><text x="1047" y="366" class="label">TOK</text>
<rect x="850" y="265" width="46" height="24" rx="5" class="green" opacity=".85"/><text x="857" y="281" class="label">BEI</text>
<!-- event markers -->
<path class="danger" d="M565 156 l6 13 l14 2 l-10 10 l3 14 l-13-7 l-12 7 l2-14 l-10-10 l14-2z"/><text x="585" y="168" class="label">BLOOD LAKE INCIDENT</text>
<rect class="mark" x="255" y="200" width="10" height="10" transform="rotate(45 260 205)"/><text x="270" y="209" class="label">A.R.F NORTH HUB</text>
<rect class="mark" x="900" y="236" width="10" height="10" transform="rotate(45 905 241)"/><text x="914" y="244" class="label">LANZHOU BREACH</text>
<rect class="mark" x="982" y="320" width="10" height="10" transform="rotate(45 987 325)"/><text x="999" y="328" class="label">HONG KONG EVENT</text>
<rect class="mark" x="555" y="192" width="10" height="10" transform="rotate(45 560 197)"/><text x="572" y="200" class="label">F.H.C EU LAB</text>
<rect class="mark" x="1035" y="376" width="10" height="10" transform="rotate(45 1040 381)"/><text x="1052" y="384" class="label">S.I.D TOKYO</text>
<rect class="mark" x="935" y="305" width="10" height="10" transform="rotate(45 940 310)"/><text x="953" y="313" class="label">C.P.D GATE</text>
<text x="32" y="635" class="tiny">Marker mode: incidents are plotted as diamond/star marks. Colored blocks indicate current zone control bands.</text>
</svg>