<svg xmlns="http://www.w3.org/2000/svg" viewBox="0 0 1200 680" role="img" aria-label="U.A.C global zone map based on world outline">
<style>
.bg{fill:#06080a}.grid{stroke:#182028;stroke-width:.7;opacity:.62}.land{fill:#10161b;stroke:#6f777d;stroke-width:.75;opacity:.95}.green{fill:#31573e;stroke:#83b98a;stroke-width:.8}.white{fill:#596570;stroke:#c2ccd4;stroke-width:.8}.yellow{fill:#6a5c2a;stroke:#d0bc58;stroke-width:.8}.red{fill:#672127;stroke:#d25b63;stroke-width:.9}.black{fill:#121314;stroke:#888;stroke-width:.8}.mark{fill:#d4c48e;stroke:#2b2115;stroke-width:1}.danger{fill:#d65d62;stroke:#ffe2e2;stroke-width:1}.label{font-family:Consolas,monospace;font-size:6px;fill:#d7d7d7;letter-spacing:.25px}.tiny{font-family:Consolas,monospace;font-size:7px;fill:#9da8ad}.title{font-family:Consolas,monospace;font-size:14px;fill:#e5e5e5;letter-spacing:.08em}
</style>
<rect class="bg" width="1200" height="680"/>
<g><path class="grid" d="M0 0V680"/><path class="grid" d="M60 0V680"/><path class="grid" d="M120 0V680"/><path class="grid" d="M180 0V680"/><path class="grid" d="M240 0V680"/><path class="grid" d="M300 0V680"/><path class="grid" d="M360 0V680"/><path class="grid" d="M420 0V680"/><path class="grid" d="M480 0V680"/><path class="grid" d="M540 0V680"/><path class="grid" d="M600 0V680"/><path class="grid" d="M660 0V680"/><path class="grid" d="M720 0V680"/><path class="grid" d="M780 0V680"/><path class="grid" d="M840 0V680"/><path class="grid" d="M900 0V680"/><path class="grid" d="M960 0V680"/><path class="grid" d="M1020 0V680"/><path class="grid" d="M1080 0V680"/><path class="grid" d="M1140 0V680"/><path class="grid" d="M1200 0V680"/><path class="grid" d="M0 0H1200"/><path class="grid" d="M0 40H1200"/><path class="grid" d="M0 80H1200"/><path class="grid" d="M0 120H1200"/><path class="grid" d="M0 160H1200"/><path class="grid" d="M0 200H1200"/><path class="grid" d="M0 240H1200"/><path class="grid" d="M0 280H1200"/><path class="grid" d="M0 320H1200"/><path class="grid" d="M0 360H1200"/><path class="grid" d="M0 400H1200"/><path class="grid" d="M0 440H1200"/><path class="grid" d="M0 480H1200"/><path class="grid" d="M0 520H1200"/><path class="grid" d="M0 560H1200"/><path class="grid" d="M0 600H1200"/><path class="grid" d="M0 640H1200"/><path class="grid" d="M0 680H1200"/></g>

<g><path class="land" d="M1195.3 402.9 L1200.0 402.5 L1195.8 404.3 L1195.3 402.9 Z"/><path class="land" d="M1192.2 405.7 L1195.2 408.6 L1191.3 408.6 L1192.2 405.7 Z"/><path class="land" d="M0.0 400.7 L0.3 402.3 L0.0 402.5 L0.0 400.7 Z"/><path class="land" d="M713.0 343.6 L730.7 357.7 L730.6 372.1 L734.4 379.0 L731.7 381.2 L715.2 383.5 L712.5 375.6 L702.5 371.5 L698.7 364.6 L701.4 344.3 L713.0 343.6 Z"/><path class="land" d="M571.1 235.5 L571.0 242.2 L560.1 242.0 L556.9 259.4 L543.1 260.7 L550.8 258.8 L562.0 238.4 L571.1 235.5 Z"/><path class="land" d="M190.5 154.9 L181.3 149.5 L175.2 148.0 L165.0 134.9 L166.6 128.8 L148.4 114.1 L141.8 117.5 L130.0 112.2 L130.0 76.6 L145.0 79.7 L172.9 73.7 L180.8 77.5 L185.3 75.0 L185.7 77.8 L215.8 79.7 L220.3 81.6 L215.7 83.5 L221.7 84.3 L237.1 85.4 L240.7 83.5 L237.3 81.9 L239.4 80.6 L246.2 80.1 L261.8 84.4 L274.4 80.9 L279.6 82.2 L279.6 85.8 L285.9 79.1 L278.4 75.2 L282.6 68.3 L290.4 70.6 L298.2 81.3 L302.6 78.4 L306.6 80.8 L308.8 86.1 L314.9 76.0 L324.6 76.8 L329.1 78.7 L328.7 86.5 L314.1 88.6 L308.9 95.3 L297.7 99.7 L285.9 109.9 L284.4 117.3 L289.3 117.9 L292.3 124.3 L325.8 131.7 L326.2 138.7 L333.6 146.5 L338.0 141.4 L333.9 133.5 L344.9 126.4 L338.3 117.8 L342.2 113.9 L339.6 104.6 L353.9 104.1 L368.0 109.3 L369.0 117.3 L374.5 120.1 L384.7 112.1 L394.0 127.2 L408.9 133.6 L414.4 143.0 L399.9 150.2 L378.7 150.2 L363.0 163.1 L383.1 154.0 L386.1 155.9 L382.9 158.4 L385.1 165.3 L389.4 167.2 L394.9 166.7 L398.3 162.4 L400.7 166.5 L382.1 175.5 L379.5 172.0 L385.2 168.9 L376.2 169.5 L374.0 162.2 L369.2 160.8 L361.6 170.0 L350.4 170.0 L325.2 182.6 L324.8 168.7 L305.4 157.5 L294.5 158.1 L283.9 153.4 L190.5 154.9 Z"/><path class="land" d="M320.0 104.1 L322.5 102.3 L327.1 102.4 L323.1 105.2 L320.0 104.1 Z"/><path class="land" d="M338.7 64.7 L330.6 61.6 L345.8 64.9 L338.7 64.7 Z"/><path class="land" d="M334.5 107.2 L333.6 104.3 L335.8 105.2 L334.5 107.2 Z"/><path class="land" d="M283.8 54.2 L286.1 58.2 L277.3 56.9 L283.8 54.2 Z"/><path class="land" d="M285.3 46.0 L279.4 47.0 L278.5 46.0 L285.3 46.0 Z"/><path class="land" d="M271.2 42.0 L281.5 43.8 L275.6 45.9 L271.2 42.0 Z"/><path class="land" d="M333.9 57.0 L291.9 57.3 L287.0 51.7 L276.3 50.1 L333.9 57.0 Z"/><path class="land" d="M224.3 45.1 L233.8 45.3 L221.6 46.3 L224.3 45.1 Z"/><path class="land" d="M228.3 42.1 L234.5 43.1 L224.9 43.8 L228.3 42.1 Z"/><path class="land" d="M414.7 146.1 L410.7 151.8 L421.7 153.9 L423.1 163.7 L419.2 159.6 L415.3 162.9 L402.4 160.2 L408.8 148.4 L414.7 146.1 Z"/><path class="land" d="M313.7 91.7 L328.2 98.3 L333.0 99.3 L309.3 100.0 L313.7 91.7 Z"/><path class="land" d="M330.8 67.8 L370.7 73.6 L376.8 78.6 L370.6 80.4 L393.8 87.4 L386.9 94.4 L373.3 89.7 L384.4 100.5 L383.3 103.2 L370.7 99.2 L379.4 106.0 L370.4 104.5 L350.6 95.7 L338.1 96.1 L353.5 92.7 L357.8 85.8 L355.6 82.8 L336.8 74.9 L304.4 74.0 L299.3 67.1 L313.9 61.2 L311.5 63.6 L314.1 66.0 L325.6 61.4 L330.8 67.8 Z"/><path class="land" d="M279.9 62.6 L291.9 60.1 L298.3 61.0 L282.0 67.8 L279.9 62.6 Z"/><path class="land" d="M190.5 52.4 L203.0 47.2 L212.7 46.7 L209.6 50.9 L190.5 52.4 Z"/><path class="land" d="M156.5 138.2 L160.8 135.5 L162.7 142.9 L156.5 138.2 Z"/><path class="land" d="M248.4 40.4 L263.9 42.3 L267.8 45.7 L249.4 43.9 L252.6 42.8 L248.4 40.4 Z"/><path class="land" d="M188.3 156.7 L181.1 155.5 L172.1 148.2 L180.8 150.0 L188.3 156.7 Z"/><path class="land" d="M183.6 59.3 L208.1 59.7 L215.0 62.4 L202.6 66.0 L198.5 70.3 L189.7 72.1 L180.2 68.5 L186.9 61.7 L183.6 59.3 Z"/><path class="land" d="M234.7 49.9 L247.7 54.9 L225.9 58.9 L220.4 57.7 L227.4 56.1 L207.6 55.8 L215.3 51.1 L236.4 54.9 L231.7 51.3 L234.7 49.9 Z"/><path class="land" d="M244.9 63.9 L263.0 77.1 L257.6 77.4 L258.6 80.3 L246.8 78.7 L222.3 81.1 L208.9 75.7 L225.3 74.2 L207.0 73.5 L213.0 70.6 L202.0 69.7 L216.0 63.0 L233.6 64.4 L239.4 69.3 L238.7 63.9 L244.9 63.9 Z"/><path class="land" d="M265.2 65.3 L261.5 62.9 L275.4 61.4 L273.2 64.3 L278.2 65.9 L272.1 70.7 L258.3 66.1 L265.2 65.3 Z"/><path class="land" d="M244.7 62.0 L249.1 61.8 L251.7 62.6 L248.7 65.1 L244.7 62.0 Z"/><path class="land" d="M271.7 50.2 L272.8 56.7 L258.3 54.5 L258.1 51.6 L271.7 50.2 Z"/><path class="land" d="M277.6 37.2 L292.0 33.0 L314.0 40.3 L290.4 44.0 L286.8 42.5 L289.5 40.1 L277.6 37.2 Z"/><path class="land" d="M294.7 30.6 L335.6 26.0 L393.8 27.8 L362.7 38.5 L343.6 40.3 L348.7 43.3 L331.5 52.2 L301.7 51.1 L307.4 48.4 L305.8 45.7 L316.7 47.1 L306.8 43.9 L316.4 40.3 L310.2 36.8 L327.2 36.0 L308.0 35.8 L294.7 30.6 Z"/><path class="land" d="M349.3 85.2 L343.4 86.5 L342.5 84.7 L347.0 82.0 L349.3 85.2 Z"/><path class="land" d="M272.6 75.0 L279.1 80.3 L267.3 77.8 L272.6 75.0 Z"/><path class="land" d="M384.9 151.6 L390.5 152.2 L394.0 154.5 L388.0 153.4 L384.9 151.6 Z"/><path class="land" d="M386.2 164.7 L387.8 164.1 L393.3 164.5 L390.4 166.3 L386.2 164.7 Z"/><path class="land" d="M190.5 154.9 L283.9 153.4 L294.5 158.1 L305.4 157.5 L324.8 168.7 L324.4 182.6 L350.4 170.0 L361.6 170.0 L369.2 160.8 L374.0 162.2 L376.8 170.7 L366.3 175.0 L363.9 180.1 L366.8 182.7 L354.3 185.4 L360.2 185.4 L353.5 186.1 L350.3 192.9 L348.2 190.8 L349.8 194.9 L346.9 199.4 L345.5 192.1 L343.4 195.5 L347.6 205.7 L328.9 221.2 L332.1 244.8 L327.6 242.3 L321.0 226.9 L312.0 225.2 L301.4 226.1 L302.0 229.8 L284.4 228.6 L276.2 234.9 L274.9 242.4 L269.9 240.4 L263.5 229.0 L253.5 229.4 L245.0 220.0 L229.9 221.6 L209.6 217.1 L197.9 209.3 L185.3 187.7 L184.4 158.0 L191.4 162.1 L190.5 154.9 Z"/><path class="land" d="M79.8 265.6 L84.0 266.3 L81.0 268.5 L79.8 265.6 Z"/><path class="land" d="M78.0 260.6 L78.6 262.3 L77.6 260.9 L78.0 260.6 Z"/><path class="land" d="M75.8 259.8 L77.4 260.4 L75.6 260.3 L75.8 259.8 Z"/><path class="land" d="M72.9 259.5 L74.5 259.4 L74.3 259.7 L72.9 259.5 Z"/><path class="land" d="M68.0 256.0 L68.5 257.3 L67.3 256.6 L68.0 256.0 Z"/><path class="land" d="M41.8 112.5 L47.8 112.2 L48.1 113.7 L41.8 112.5 Z"/><path class="land" d="M84.4 122.9 L92.9 122.4 L84.9 124.7 L84.4 122.9 Z"/><path class="land" d="M130.0 76.6 L130.0 112.2 L141.8 117.5 L148.4 114.1 L166.6 128.8 L164.9 133.0 L153.1 120.4 L144.6 120.1 L133.8 115.1 L109.6 110.0 L94.3 116.5 L97.9 108.5 L71.9 128.5 L50.2 133.8 L71.1 124.6 L76.5 117.4 L60.1 118.4 L58.3 113.4 L48.8 111.4 L47.6 105.5 L64.1 99.1 L61.6 96.7 L64.1 95.2 L50.1 96.5 L39.6 91.9 L61.1 90.2 L44.1 81.8 L46.0 79.8 L78.1 70.4 L130.0 76.6 Z"/><path class="land" d="M27.6 99.0 L31.7 99.4 L37.7 100.9 L34.9 102.1 L27.6 99.0 Z"/><path class="land" d="M891.2 154.1 L883.9 162.4 L877.3 161.2 L874.9 168.0 L866.6 170.3 L867.5 180.0 L847.4 176.4 L837.3 178.7 L828.8 186.4 L822.4 184.5 L816.3 174.8 L806.7 175.6 L795.0 167.8 L786.4 170.0 L786.6 183.9 L780.3 180.1 L775.0 182.2 L767.7 171.5 L776.8 169.0 L776.8 163.0 L763.7 164.7 L754.9 157.2 L758.5 149.4 L761.9 151.6 L769.2 144.7 L804.5 148.1 L799.9 143.7 L805.7 139.9 L804.8 136.0 L830.2 130.8 L844.8 137.9 L856.3 134.1 L866.8 147.8 L877.9 147.1 L891.2 154.1 Z"/><path class="land" d="M786.6 183.9 L786.4 170.0 L795.0 167.8 L806.7 175.6 L816.3 174.8 L827.5 186.4 L836.5 180.3 L834.7 183.1 L843.5 185.6 L831.1 186.1 L825.7 190.5 L826.1 199.7 L795.4 178.5 L786.6 183.9 Z"/><path class="land" d="M1070.0 349.8 L1092.2 363.0 L1090.6 367.9 L1102.3 380.0 L1093.0 378.3 L1082.5 368.8 L1075.4 375.2 L1070.1 374.4 L1070.0 349.8 Z"/><path class="land" d="M1103.1 349.4 L1109.4 358.0 L1102.2 350.4 L1103.1 349.4 Z"/><path class="land" d="M1104.3 362.1 L1099.0 363.9 L1094.4 361.7 L1107.1 355.7 L1104.3 362.1 Z"/><path class="land" d="M1115.9 360.2 L1120.1 364.7 L1119.6 365.8 L1117.2 364.7 L1115.9 360.2 Z"/><path class="land" d="M1070.0 349.8 L1070.1 374.4 L1058.7 371.8 L1062.2 367.7 L1059.8 360.4 L1045.5 353.4 L1043.3 355.5 L1040.0 350.7 L1045.7 348.4 L1035.1 343.5 L1046.6 342.9 L1051.5 352.7 L1058.1 346.4 L1070.0 349.8 Z"/><path class="land" d="M1016.6 373.6 L1014.8 378.3 L1011.5 378.7 L1013.3 375.1 L1016.6 373.6 Z"/><path class="land" d="M1047.4 366.0 L1047.0 363.2 L1048.3 360.6 L1049.1 363.5 L1047.4 366.0 Z"/><path class="land" d="M992.9 324.4 L991.0 327.8 L996.7 336.6 L992.7 337.0 L987.2 355.2 L967.4 351.1 L963.2 338.4 L965.5 332.4 L968.4 337.1 L979.4 335.4 L986.2 323.7 L992.9 324.4 Z"/><path class="land" d="M1026.3 352.8 L1034.9 351.7 L1036.1 354.6 L1026.3 352.8 Z"/><path class="land" d="M1023.3 351.8 L1020.6 353.6 L1020.0 352.0 L1023.3 351.8 Z"/><path class="land" d="M1026.4 331.8 L1029.0 335.7 L1027.0 343.4 L1024.7 336.2 L1026.4 331.8 Z"/><path class="land" d="M1003.0 335.1 L1017.5 334.6 L1000.1 342.0 L1003.1 345.3 L1011.1 342.3 L1005.0 347.2 L1010.5 360.2 L1005.0 357.3 L1003.2 349.9 L999.3 361.4 L995.9 350.6 L999.4 339.4 L1003.0 335.1 Z"/><path class="land" d="M1001.0 378.8 L996.6 376.1 L999.7 375.4 L1001.0 378.8 Z"/><path class="land" d="M999.7 373.3 L1006.7 372.0 L1009.7 370.6 L1009.2 372.7 L999.7 373.3 Z"/><path class="land" d="M993.0 370.6 L997.1 372.9 L989.1 374.1 L993.0 370.6 Z"/><path class="land" d="M953.5 362.3 L975.4 366.2 L985.7 371.6 L951.2 365.9 L953.5 362.3 Z"/><path class="land" d="M924.9 320.2 L953.7 351.6 L952.7 362.1 L941.9 355.9 L917.6 319.3 L924.9 320.2 Z"/><path class="land" d="M371.2 538.8 L374.2 543.4 L383.2 546.6 L371.2 547.3 L371.2 538.8 Z"/><path class="land" d="M407.9 454.2 L405.0 470.1 L410.7 479.4 L402.6 486.3 L392.2 486.7 L390.8 495.0 L382.9 495.1 L388.5 500.8 L375.7 512.1 L374.7 514.9 L381.2 518.4 L369.5 531.7 L372.8 537.8 L360.3 536.5 L355.3 526.3 L362.6 509.2 L359.5 499.6 L371.9 432.6 L379.1 422.5 L385.4 426.1 L390.5 423.2 L407.4 435.1 L404.6 442.5 L414.3 443.5 L419.6 436.5 L421.2 441.7 L407.9 454.2 Z"/><path class="land" d="M371.2 538.8 L371.2 547.3 L376.8 547.4 L372.8 550.1 L351.1 539.6 L363.0 544.3 L371.2 538.8 Z"/><path class="land" d="M368.0 406.4 L373.9 426.4 L376.7 426.8 L371.9 432.6 L372.3 441.6 L364.9 458.5 L367.3 469.2 L359.5 499.6 L362.6 509.2 L355.3 526.3 L360.3 536.5 L371.4 537.6 L361.9 543.5 L350.2 537.4 L348.0 523.9 L352.9 517.3 L347.9 516.2 L352.2 506.6 L355.9 507.9 L357.6 500.1 L352.2 503.3 L354.7 480.4 L361.9 462.5 L368.0 406.4 Z"/><path class="land" d="M697.8 357.0 L702.5 371.5 L695.8 372.2 L694.6 384.6 L699.0 390.1 L690.5 383.9 L673.9 381.9 L672.4 367.5 L658.2 370.5 L654.4 362.2 L640.6 361.9 L653.4 353.4 L664.9 321.0 L674.7 324.8 L685.5 320.1 L699.1 322.6 L703.9 331.7 L699.6 337.7 L697.8 357.0 Z"/><path class="land" d="M738.6 346.4 L736.6 329.5 L740.4 324.0 L749.9 321.1 L763.1 304.3 L763.2 296.9 L770.4 294.6 L762.0 319.8 L738.6 346.4 Z"/><path class="land" d="M730.7 357.7 L713.0 343.6 L716.8 332.8 L713.4 323.9 L717.7 319.2 L727.1 326.4 L739.5 325.2 L736.6 329.5 L738.6 346.4 L730.7 357.7 Z"/><path class="land" d="M681.9 308.9 L679.4 307.3 L678.2 306.2 L673.1 292.4 L676.7 280.8 L679.6 281.0 L679.5 264.4 L683.3 264.4 L683.3 256.9 L722.9 256.9 L728.0 272.0 L722.8 275.9 L713.2 307.2 L709.1 293.7 L704.5 302.9 L683.6 301.2 L679.6 307.4 L681.9 308.9 Z"/><path class="land" d="M679.5 266.0 L679.6 281.0 L676.7 280.8 L673.1 292.4 L676.2 297.9 L659.9 310.2 L650.9 312.0 L646.5 303.9 L651.6 302.3 L645.1 285.7 L650.8 277.2 L653.0 263.0 L649.5 253.6 L652.9 251.6 L679.5 266.0 Z"/><path class="land" d="M361.0 265.5 L361.0 271.8 L351.8 270.7 L358.9 269.5 L356.0 264.8 L361.0 265.5 Z"/><path class="land" d="M362.0 273.5 L361.4 264.9 L372.3 269.7 L362.0 273.5 Z"/><path class="land" d="M1195.8 71.4 L1200.0 69.8 L1200.0 72.4 L1195.8 71.4 Z"/><path class="land" d="M763.7 164.7 L755.6 171.5 L761.9 182.1 L759.4 184.5 L722.3 169.1 L730.5 162.3 L727.5 160.4 L732.5 159.0 L733.6 152.6 L717.9 148.9 L712.5 142.3 L706.0 143.2 L704.4 139.5 L709.0 138.5 L702.9 130.1 L693.9 127.8 L691.0 122.9 L697.1 113.2 L693.6 111.4 L705.1 102.5 L700.1 99.9 L700.7 91.4 L696.8 87.1 L699.9 84.3 L695.3 79.1 L707.1 75.9 L736.9 85.2 L727.9 90.7 L710.6 88.3 L716.0 91.0 L716.5 96.7 L723.4 98.8 L723.9 93.9 L732.0 96.3 L740.3 88.9 L746.5 90.4 L748.4 87.8 L744.8 81.0 L754.2 82.2 L756.1 84.3 L751.9 86.9 L754.5 88.1 L779.1 79.9 L799.8 82.1 L803.6 79.6 L801.8 76.1 L828.4 82.8 L830.6 80.8 L823.1 77.6 L822.3 71.7 L833.1 64.1 L842.7 67.2 L839.5 70.2 L845.6 81.6 L837.6 89.5 L841.4 90.0 L850.2 84.0 L845.3 77.0 L848.0 73.2 L843.7 70.1 L848.9 64.9 L854.5 71.2 L853.0 68.5 L858.6 67.0 L871.7 68.9 L868.4 61.8 L889.4 60.7 L886.7 58.7 L890.6 56.2 L935.9 51.3 L947.8 46.5 L980.4 53.5 L964.7 59.8 L1010.7 64.3 L1010.9 61.4 L1023.3 62.1 L1037.6 72.6 L1040.8 68.6 L1066.2 69.9 L1063.8 66.4 L1068.2 64.8 L1130.0 72.3 L1136.5 77.7 L1159.5 77.1 L1165.3 80.5 L1169.4 79.3 L1168.2 75.2 L1200.0 79.5 L1200.0 94.5 L1191.4 95.9 L1197.4 104.6 L1178.9 107.1 L1167.8 113.8 L1145.1 113.8 L1140.1 120.0 L1144.0 122.3 L1140.4 132.8 L1122.6 147.3 L1119.7 125.5 L1145.6 109.0 L1148.2 103.7 L1133.7 111.3 L1131.0 106.6 L1122.4 107.9 L1114.1 114.2 L1116.8 116.6 L1074.0 117.0 L1050.4 133.2 L1071.2 139.4 L1066.9 157.0 L1049.6 176.1 L1035.9 180.5 L1036.8 170.1 L1043.7 169.5 L1050.1 156.9 L1036.6 159.5 L1025.5 152.0 L1019.8 140.6 L1011.9 138.0 L1000.6 140.7 L1002.5 143.7 L992.9 153.0 L981.2 150.2 L961.6 153.8 L929.5 143.4 L924.2 152.1 L907.4 148.1 L891.2 154.1 L877.9 147.1 L866.8 147.8 L856.3 134.1 L844.8 137.9 L830.2 130.8 L804.8 136.0 L805.7 139.9 L799.9 143.7 L804.5 148.1 L769.2 144.7 L761.9 151.6 L758.5 149.4 L754.9 157.2 L763.7 164.7 Z"/><path class="land" d="M903.9 36.5 L919.8 33.1 L934.0 38.6 L933.1 42.0 L925.9 42.5 L903.9 36.5 Z"/><path class="land" d="M937.5 40.7 L951.2 42.6 L931.5 45.6 L937.5 40.7 Z"/><path class="land" d="M1056.6 55.7 L1071.6 52.5 L1083.6 54.5 L1063.2 58.1 L1056.6 55.7 Z"/><path class="land" d="M1094.1 55.4 L1102.4 56.3 L1087.1 56.0 L1094.1 55.4 Z"/><path class="land" d="M1066.2 62.8 L1073.5 61.0 L1078.7 63.4 L1073.6 63.4 L1066.2 62.8 Z"/><path class="land" d="M749.5 35.5 L766.8 34.3 L771.7 35.1 L758.6 37.7 L749.5 35.5 Z"/><path class="land" d="M675.8 134.8 L669.6 134.8 L665.5 134.4 L670.9 131.5 L675.8 134.8 Z"/><path class="land" d="M778.4 61.4 L803.9 51.9 L829.5 50.8 L794.9 59.3 L784.7 66.6 L791.8 72.8 L772.0 70.0 L781.4 61.9 L778.4 61.4 Z"/><path class="land" d="M1074.0 135.1 L1082.2 155.0 L1077.2 153.7 L1075.2 159.2 L1078.4 165.7 L1073.6 166.3 L1072.3 138.6 L1074.0 135.1 Z"/><path class="land" d="M0.0 79.5 L18.9 89.4 L18.1 86.7 L27.1 87.2 L33.7 90.8 L24.9 92.8 L23.5 97.3 L4.4 90.2 L0.0 94.5 L0.0 79.5 Z"/><path class="land" d="M8.1 70.8 L0.0 72.4 L0.0 69.8 L8.1 70.8 Z"/><path class="land" d="M708.2 168.8 L712.3 165.4 L721.8 168.2 L712.9 172.4 L708.2 168.8 Z"/><path class="land" d="M337.0 240.2 L340.5 238.6 L340.6 239.6 L337.0 240.2 Z"/><path class="land" d="M342.2 239.8 L343.3 239.5 L342.8 242.2 L342.2 239.8 Z"/><path class="land" d="M338.6 247.2 L340.4 244.9 L341.6 250.2 L338.6 247.2 Z"/><path class="land" d="M396.0 535.9 L404.8 533.0 L407.5 534.7 L402.0 537.2 L396.0 535.9 Z"/><path class="land" d="M634.8 39.1 L656.6 37.6 L671.8 41.7 L653.0 50.0 L634.8 39.1 Z"/><path class="land" d="M703.7 77.2 L695.3 79.1 L696.7 76.4 L692.4 74.9 L682.5 80.7 L670.8 77.9 L660.0 81.0 L641.9 98.0 L641.0 112.9 L636.8 117.7 L618.9 118.7 L616.6 105.9 L663.9 76.2 L693.9 71.1 L704.3 73.8 L700.0 74.9 L703.7 77.2 Z"/><path class="land" d="M691.4 37.6 L676.7 40.0 L657.9 36.6 L676.4 35.3 L691.4 37.6 Z"/><path class="land" d="M682.4 45.9 L675.0 47.4 L669.1 46.6 L676.3 43.6 L682.4 45.9 Z"/><path class="land" d="M444.1 27.8 L509.7 24.5 L530.5 27.5 L493.7 29.5 L559.3 32.9 L533.2 37.1 L540.9 37.3 L534.3 42.5 L538.4 49.2 L527.7 50.5 L533.9 52.5 L534.7 55.7 L531.1 56.1 L535.4 59.3 L521.4 63.1 L525.7 67.3 L517.4 66.8 L527.5 73.0 L514.9 70.1 L512.1 74.7 L525.5 75.1 L467.3 92.7 L457.3 103.2 L455.4 113.0 L439.1 110.1 L427.9 99.6 L420.1 86.2 L430.4 75.8 L417.7 77.0 L418.8 72.5 L428.7 73.4 L413.9 69.3 L417.6 65.8 L404.7 54.7 L371.7 52.7 L362.0 49.1 L377.5 47.7 L355.7 45.2 L381.0 40.1 L373.3 37.3 L391.2 31.1 L432.0 28.6 L451.6 31.5 L444.1 27.8 Z"/><path class="land" d="M829.8 523.7 L835.1 525.4 L835.2 526.1 L829.1 528.0 L829.8 523.7 Z"/><path class="land" d="M1017.0 375.5 L1019.8 371.9 L1024.5 371.7 L1017.0 375.5 Z"/><path class="land" d="M654.5 448.0 L666.3 447.5 L666.3 433.6 L672.0 441.0 L677.7 435.5 L685.5 436.3 L698.1 423.5 L704.0 424.1 L706.4 432.1 L702.3 441.0 L709.4 441.0 L707.3 448.6 L694.1 463.8 L666.9 471.4 L661.3 469.0 L660.7 459.6 L654.5 448.0 Z"/><path class="land" d="M696.6 449.4 L693.7 455.4 L690.0 452.9 L693.6 449.0 L696.6 449.4 Z"/><path class="land" d="M209.6 217.1 L229.9 221.6 L245.0 220.0 L253.5 229.4 L261.1 227.5 L269.9 240.4 L276.2 242.3 L273.8 255.2 L280.3 268.9 L295.3 268.7 L299.1 260.7 L309.8 258.6 L307.2 271.0 L296.7 272.7 L298.5 279.3 L294.2 279.3 L292.6 285.1 L287.1 279.8 L278.1 280.9 L255.0 270.9 L222.8 222.2 L216.9 221.4 L233.8 253.8 L216.5 235.3 L219.5 232.1 L209.6 217.1 Z"/><path class="land" d="M407.9 454.2 L420.7 461.1 L420.6 469.9 L412.6 471.7 L405.2 468.1 L407.9 454.2 Z"/><path class="land" d="M422.1 467.6 L420.7 461.1 L407.9 454.2 L421.2 438.7 L414.0 424.5 L406.9 423.5 L405.9 401.6 L399.5 401.4 L398.3 392.0 L382.0 383.7 L382.2 376.9 L364.8 381.6 L365.1 375.9 L359.4 378.0 L353.4 368.4 L357.0 359.9 L367.0 356.2 L367.3 333.5 L374.9 332.3 L381.5 337.0 L388.8 331.7 L383.9 324.7 L389.7 325.8 L397.6 320.4 L403.2 335.0 L413.4 330.5 L423.5 332.0 L428.9 324.1 L433.4 333.4 L432.0 340.3 L450.3 345.9 L451.4 350.2 L466.7 350.9 L481.3 359.5 L484.2 367.7 L471.1 389.3 L463.5 422.9 L441.2 434.0 L437.0 448.3 L422.1 467.6 Z"/><path class="land" d="M368.2 381.4 L382.2 376.9 L382.0 383.7 L398.3 392.0 L399.5 401.4 L405.9 401.6 L407.2 415.4 L394.0 414.2 L391.0 424.1 L385.4 426.1 L379.1 422.5 L373.9 426.4 L368.0 406.4 L371.1 387.5 L368.2 381.4 Z"/><path class="land" d="M367.0 356.2 L357.0 359.9 L353.4 368.4 L359.4 378.0 L365.1 375.9 L364.8 381.6 L371.1 387.5 L370.1 402.3 L365.4 409.3 L346.6 395.3 L328.6 357.9 L332.3 352.9 L331.9 356.7 L337.9 357.2 L349.6 340.2 L356.4 348.7 L366.5 350.3 L364.4 354.1 L367.0 356.2 Z"/><path class="land" d="M377.1 335.3 L367.3 333.5 L367.0 356.2 L364.4 354.1 L366.5 350.3 L356.4 348.7 L349.6 340.2 L341.9 338.5 L336.7 333.6 L342.9 325.5 L341.8 307.8 L350.3 298.1 L362.0 293.2 L355.7 305.4 L360.1 313.6 L375.5 317.0 L374.0 329.3 L377.1 335.3 Z"/><path class="land" d="M342.2 307.2 L340.4 312.7 L336.3 306.0 L330.4 312.7 L323.8 309.5 L323.6 304.2 L328.5 306.8 L336.6 303.9 L342.2 307.2 Z"/><path class="land" d="M324.8 303.9 L323.4 308.9 L313.5 298.8 L321.1 298.7 L324.8 303.9 Z"/><path class="land" d="M321.1 298.7 L314.3 298.1 L307.8 291.2 L322.8 283.3 L321.1 298.7 Z"/><path class="land" d="M322.8 283.3 L308.9 290.9 L302.2 285.5 L307.0 280.1 L322.8 283.3 Z"/><path class="land" d="M299.7 288.1 L307.6 287.9 L307.0 290.3 L299.7 288.1 Z"/><path class="land" d="M292.6 285.1 L294.2 279.3 L298.5 279.3 L296.7 272.7 L302.9 272.7 L302.6 280.0 L305.9 280.6 L302.2 285.5 L299.7 288.1 L292.6 285.1 Z"/><path class="land" d="M302.9 272.7 L306.3 270.7 L303.6 280.0 L302.6 280.0 L302.9 272.7 Z"/><path class="land" d="M397.6 320.4 L389.7 325.8 L383.9 324.7 L388.8 331.7 L378.9 337.3 L374.0 329.3 L375.5 317.0 L360.1 313.6 L355.7 305.4 L357.0 300.5 L360.1 296.1 L362.2 295.5 L359.8 302.7 L362.5 305.5 L362.0 298.6 L366.9 294.1 L372.7 300.1 L393.7 299.5 L390.9 300.6 L400.8 308.4 L395.3 317.5 L397.6 320.4 Z"/><path class="land" d="M411.5 332.8 L401.2 333.2 L400.1 321.1 L395.3 317.5 L400.8 308.4 L409.5 317.4 L406.5 324.7 L411.5 332.8 Z"/><path class="land" d="M418.3 331.3 L411.5 332.8 L408.0 327.4 L409.5 317.4 L420.1 318.3 L418.3 331.3 Z"/><path class="land" d="M427.8 324.3 L423.5 332.0 L418.3 331.3 L420.1 318.3 L427.8 324.3 Z"/><path class="land" d="M608.4 146.8 L627.0 154.8 L620.1 163.5 L624.8 174.9 L606.1 180.0 L593.7 176.0 L596.0 166.2 L584.7 156.1 L594.6 156.2 L593.6 152.0 L608.4 146.8 Z"/><path class="land" d="M629.3 182.9 L631.3 177.5 L630.8 183.7 L629.3 182.9 Z"/><path class="land" d="M348.8 340.6 L348.2 345.9 L337.9 357.2 L331.9 356.7 L334.1 350.0 L330.1 348.5 L330.2 344.0 L333.0 337.1 L337.1 334.8 L348.8 340.6 Z"/><path class="land" d="M376.3 270.0 L381.4 271.1 L376.1 272.2 L376.3 270.0 Z"/><path class="land" d="M338.9 271.1 L343.7 270.5 L346.0 272.4 L338.9 271.1 Z"/><path class="land" d="M325.8 252.4 L338.8 255.0 L352.7 263.4 L340.8 265.0 L343.0 262.9 L337.6 258.4 L327.3 254.5 L316.8 257.3 L325.8 252.4 Z"/><path class="land" d="M704.0 424.1 L693.4 421.2 L684.2 407.0 L690.1 407.8 L700.9 398.6 L709.5 403.1 L708.9 416.7 L704.0 424.1 Z"/><path class="land" d="M698.1 423.5 L685.5 436.3 L677.7 435.5 L672.0 441.0 L666.3 433.6 L669.7 409.0 L684.2 407.0 L698.1 423.5 Z"/><path class="land" d="M669.7 409.0 L666.3 447.5 L654.5 448.0 L639.1 405.4 L683.6 406.4 L669.7 409.0 Z"/><path class="land" d="M544.3 288.6 L541.2 284.4 L551.4 277.3 L559.4 284.8 L561.6 293.0 L544.4 293.2 L543.9 290.3 L553.9 289.0 L544.3 288.6 Z"/><path class="land" d="M561.6 293.0 L561.1 281.9 L581.5 281.4 L578.5 245.7 L583.6 245.7 L614.2 267.6 L612.1 281.2 L586.6 289.1 L582.0 300.8 L573.2 301.4 L569.6 293.5 L561.6 293.0 Z"/><path class="land" d="M543.1 260.7 L556.9 259.4 L560.1 242.0 L571.0 242.2 L571.1 236.5 L583.6 245.7 L578.5 245.7 L581.5 281.4 L559.4 284.8 L551.4 277.3 L545.1 279.0 L543.1 260.7 Z"/><path class="land" d="M609.0 316.4 L606.2 316.8 L602.6 300.4 L609.5 293.8 L612.7 299.4 L609.0 316.4 Z"/><path class="land" d="M649.5 253.6 L653.0 263.0 L650.8 277.2 L645.1 285.7 L647.3 292.8 L643.6 288.6 L630.0 291.5 L618.1 287.6 L613.7 288.9 L612.0 296.0 L603.4 291.4 L601.2 283.6 L612.1 281.2 L614.2 267.6 L640.0 251.3 L649.5 253.6 Z"/><path class="land" d="M609.0 316.4 L614.6 288.1 L630.0 291.5 L643.6 288.6 L648.6 294.3 L639.2 313.6 L630.8 315.7 L628.3 322.0 L619.7 323.9 L614.4 316.3 L609.0 316.4 Z"/><path class="land" d="M648.3 291.4 L651.6 302.3 L646.5 303.9 L651.5 310.9 L648.3 322.1 L653.1 333.5 L632.2 331.4 L629.2 319.3 L633.7 313.4 L639.2 313.6 L648.3 291.4 Z"/><path class="land" d="M603.0 298.5 L606.2 316.8 L603.5 317.6 L599.8 299.6 L603.0 298.5 Z"/><path class="land" d="M600.1 298.4 L603.5 317.6 L590.5 321.1 L590.2 298.6 L600.1 298.4 Z"/><path class="land" d="M573.2 301.4 L590.6 303.6 L590.5 321.1 L574.3 323.5 L571.3 315.6 L573.2 301.4 Z"/><path class="land" d="M554.3 292.5 L569.6 293.5 L573.2 301.4 L572.4 311.0 L565.0 308.5 L562.9 302.0 L555.8 306.4 L549.6 298.3 L554.3 292.5 Z"/><path class="land" d="M544.4 293.2 L554.3 292.5 L554.2 295.4 L549.6 298.3 L544.4 293.2 Z"/><path class="land" d="M571.9 311.0 L574.8 318.4 L574.3 323.5 L561.9 314.4 L565.9 308.2 L571.9 311.0 Z"/><path class="land" d="M555.8 306.4 L562.9 302.0 L565.9 308.2 L561.9 314.4 L555.8 306.4 Z"/><path class="land" d="M582.0 300.8 L585.7 290.0 L596.4 283.4 L601.2 283.6 L603.4 291.4 L607.3 292.3 L603.0 298.5 L590.2 298.6 L590.6 303.6 L582.0 300.8 Z"/><path class="land" d="M691.2 320.2 L674.7 324.8 L664.9 321.0 L653.4 331.4 L648.2 319.4 L650.9 312.0 L659.9 310.2 L676.2 297.9 L678.2 306.2 L691.2 320.2 Z"/><path class="land" d="M661.5 326.8 L653.4 353.4 L648.6 358.8 L639.7 359.0 L638.3 350.4 L646.6 349.3 L648.1 345.0 L647.6 335.5 L643.6 331.4 L653.1 333.5 L657.1 325.9 L661.5 326.8 Z"/><path class="land" d="M637.6 331.5 L647.6 335.5 L648.1 345.0 L646.6 349.3 L638.3 350.4 L637.0 355.0 L629.3 344.2 L631.6 336.2 L637.6 336.0 L637.6 331.5 Z"/><path class="land" d="M632.2 331.4 L637.6 331.5 L637.6 336.0 L631.6 336.2 L632.2 331.4 Z"/><path class="land" d="M702.5 371.5 L710.8 376.6 L710.7 392.8 L700.6 395.9 L690.1 407.8 L677.4 406.2 L673.0 400.7 L673.1 388.7 L680.1 388.8 L679.7 381.3 L699.0 390.1 L694.6 384.6 L694.8 374.6 L702.5 371.5 Z"/><path class="land" d="M709.2 374.9 L714.3 378.4 L715.2 391.3 L719.0 395.2 L716.8 403.5 L714.9 395.2 L709.0 391.8 L711.6 379.8 L709.2 374.9 Z"/><path class="land" d="M715.2 383.5 L734.4 379.0 L735.9 395.5 L716.0 414.7 L718.2 431.1 L706.9 441.0 L704.0 424.1 L708.9 416.7 L709.5 403.1 L701.1 400.0 L700.6 395.9 L710.7 392.8 L714.9 395.2 L716.8 403.5 L719.0 395.2 L715.2 391.3 L715.2 383.5 Z"/><path class="land" d="M706.9 441.0 L702.3 441.0 L703.5 437.2 L706.1 437.6 L706.9 441.0 Z"/><path class="land" d="M639.7 359.0 L642.1 358.9 L640.6 361.9 L639.7 359.0 Z"/><path class="land" d="M641.1 363.0 L654.4 362.2 L658.2 370.5 L672.4 367.5 L673.9 381.9 L680.1 382.5 L680.1 388.8 L673.1 388.7 L673.0 400.7 L677.4 406.2 L639.1 405.4 L645.8 382.7 L641.1 363.0 Z"/><path class="land" d="M701.6 349.1 L702.5 352.7 L697.8 357.0 L696.7 350.7 L701.6 349.1 Z"/><path class="land" d="M717.0 215.0 L716.6 219.6 L716.4 228.6 L714.2 222.1 L717.0 215.0 Z"/><path class="land" d="M722.0 210.8 L717.1 215.0 L721.5 209.3 L722.0 210.8 Z"/><path class="land" d="M765.1 387.1 L767.9 399.3 L757.0 434.2 L751.4 436.7 L746.8 434.4 L744.5 426.0 L748.2 413.4 L746.5 405.8 L765.1 387.1 Z"/><path class="land" d="M718.5 217.6 L716.4 221.6 L717.3 217.1 L718.5 217.6 Z"/><path class="land" d="M543.9 290.3 L549.7 287.6 L553.9 289.0 L543.9 290.3 Z"/><path class="land" d="M631.6 225.5 L625.1 211.2 L628.1 200.4 L631.7 198.9 L636.8 199.9 L633.8 210.3 L638.3 214.8 L631.6 225.5 Z"/><path class="land" d="M571.1 236.5 L571.1 231.0 L595.6 218.1 L592.8 207.1 L596.0 205.1 L628.1 200.4 L625.1 211.2 L632.7 228.8 L631.1 241.4 L640.0 251.3 L610.5 268.0 L571.1 236.5 Z"/><path class="land" d="M718.5 217.6 L729.3 213.9 L730.7 218.5 L723.3 221.0 L726.7 224.7 L720.2 229.7 L716.4 228.6 L718.5 217.6 Z"/><path class="land" d="M771.9 248.4 L780.0 248.9 L787.5 242.9 L783.4 255.0 L773.3 253.1 L771.9 248.4 Z"/><path class="land" d="M772.0 244.7 L769.1 243.7 L771.0 241.3 L772.0 244.7 Z"/><path class="land" d="M757.7 226.4 L761.4 232.1 L755.2 230.1 L757.7 226.4 Z"/><path class="land" d="M730.7 218.5 L729.3 213.9 L736.7 210.0 L737.6 202.6 L749.2 199.6 L753.6 205.2 L751.4 211.7 L761.9 226.9 L749.0 229.8 L730.7 218.5 Z"/><path class="land" d="M783.3 264.4 L788.0 245.8 L799.4 255.7 L792.3 268.4 L777.0 277.1 L773.3 268.2 L783.3 264.4 Z"/><path class="land" d="M788.3 240.6 L786.9 241.6 L787.9 240.3 L788.3 240.6 Z"/><path class="land" d="M1157.4 400.0 L1159.5 402.2 L1158.4 402.7 L1157.4 400.0 Z"/><path class="land" d="M1157.6 399.5 L1155.5 398.2 L1155.4 395.3 L1157.6 399.5 Z"/><path class="land" d="M945.0 299.8 L943.3 286.3 L955.0 285.0 L958.7 288.9 L954.2 298.6 L945.0 299.8 Z"/><path class="land" d="M950.7 286.1 L943.3 286.3 L941.9 294.0 L933.7 289.4 L930.7 305.1 L940.5 316.5 L937.2 318.5 L927.2 308.5 L932.0 295.1 L927.3 282.9 L929.7 278.9 L924.6 270.3 L933.7 262.9 L937.6 266.5 L936.9 273.8 L944.0 270.8 L949.1 274.2 L950.7 286.1 Z"/><path class="land" d="M957.9 286.3 L950.7 286.1 L952.0 281.2 L946.5 271.1 L936.9 273.8 L937.6 266.5 L933.7 262.9 L939.3 260.0 L938.8 255.7 L948.1 261.6 L946.3 267.2 L957.7 279.9 L957.9 286.3 Z"/><path class="land" d="M937.2 257.5 L924.6 270.3 L929.7 278.9 L927.3 282.9 L932.0 295.1 L928.5 302.5 L923.9 276.0 L914.0 279.4 L914.4 271.2 L907.7 258.9 L917.1 239.6 L923.8 237.7 L924.4 233.2 L928.9 236.1 L925.3 249.7 L928.9 249.1 L930.8 256.4 L937.2 257.5 Z"/><path class="land" d="M947.8 300.4 L958.3 293.4 L958.5 282.6 L946.3 267.2 L948.1 261.6 L944.0 261.5 L940.6 255.1 L951.1 251.8 L960.2 258.6 L952.2 268.0 L962.9 282.3 L964.0 295.9 L950.5 307.5 L947.8 300.4 Z"/><path class="land" d="M1035.9 180.5 L1035.9 180.5 L1035.9 180.5 L1035.9 180.5 Z"/><path class="land" d="M1035.5 179.8 L1025.1 189.8 L1027.4 195.0 L1015.7 196.0 L1018.0 191.2 L1014.2 189.2 L1016.9 186.7 L1033.3 177.6 L1035.5 179.8 Z"/><path class="land" d="M1020.6 197.4 L1027.8 194.1 L1031.5 201.0 L1030.3 207.5 L1021.6 210.1 L1020.6 197.4 Z"/><path class="land" d="M892.5 153.8 L907.4 148.1 L924.2 152.1 L929.5 143.4 L961.6 153.8 L988.9 151.5 L985.8 159.7 L993.5 158.4 L999.2 162.3 L972.9 169.6 L972.8 174.7 L968.0 178.0 L949.9 182.9 L921.2 178.6 L917.7 172.9 L903.2 168.9 L903.2 162.9 L892.5 153.8 Z"/><path class="land" d="M920.4 228.7 L923.8 237.7 L917.1 239.6 L908.9 256.7 L907.2 250.7 L903.9 251.2 L907.9 245.6 L895.2 240.1 L896.3 258.1 L889.9 258.8 L888.3 263.9 L867.7 279.9 L866.2 300.9 L858.5 309.9 L845.1 279.6 L842.1 259.3 L834.9 261.1 L827.3 250.5 L836.8 248.0 L831.7 238.2 L839.3 234.6 L850.9 218.1 L845.8 210.4 L859.5 205.9 L863.0 210.3 L862.5 220.9 L870.4 226.0 L867.0 231.2 L877.7 236.6 L893.5 240.2 L895.8 233.9 L899.1 239.1 L906.8 238.6 L905.7 235.1 L920.4 228.7 Z"/><path class="land" d="M907.2 250.7 L907.9 261.9 L904.7 254.0 L896.8 256.7 L895.2 240.1 L907.9 245.6 L903.9 251.2 L907.2 250.7 Z"/><path class="land" d="M900.1 233.1 L906.8 238.6 L896.1 237.6 L900.1 233.1 Z"/><path class="land" d="M893.7 234.7 L893.5 240.2 L890.8 240.3 L867.0 231.2 L871.8 225.1 L893.7 234.7 Z"/><path class="land" d="M859.5 205.9 L845.8 210.4 L850.9 218.1 L839.3 234.6 L831.7 238.2 L836.8 248.0 L827.3 250.5 L821.2 243.9 L805.0 245.3 L811.1 238.9 L802.9 227.3 L821.2 227.1 L823.1 221.7 L831.1 219.5 L839.5 202.1 L850.5 199.7 L859.5 205.9 Z"/><path class="land" d="M821.7 198.9 L830.7 199.7 L836.0 194.6 L839.5 201.2 L850.5 199.7 L837.5 203.7 L838.7 207.2 L833.1 211.5 L831.1 219.5 L823.1 221.7 L821.2 227.1 L802.9 227.3 L805.9 223.9 L801.8 215.4 L804.0 205.3 L809.9 206.3 L821.7 198.9 Z"/><path class="land" d="M826.1 199.7 L825.7 190.5 L835.6 185.3 L836.7 188.0 L831.5 190.7 L845.6 191.0 L849.9 198.6 L839.5 201.2 L836.0 194.6 L826.1 199.7 Z"/><path class="land" d="M834.7 183.1 L847.4 176.4 L867.5 180.0 L845.6 191.0 L831.5 190.7 L843.5 185.6 L834.7 183.1 Z"/><path class="land" d="M775.0 182.2 L780.3 180.1 L790.3 183.9 L795.4 178.5 L821.7 198.9 L807.4 206.8 L791.1 196.3 L779.7 199.5 L775.6 188.8 L782.5 185.3 L779.1 180.9 L776.0 184.6 L775.0 182.2 Z"/><path class="land" d="M761.9 226.9 L751.4 211.7 L753.6 205.2 L747.0 191.0 L753.8 193.6 L760.2 190.5 L769.5 200.7 L788.7 196.0 L803.7 202.1 L801.8 215.4 L805.9 223.9 L802.9 227.3 L811.1 238.9 L805.0 245.3 L791.3 242.8 L789.9 238.1 L778.3 238.7 L767.1 226.1 L761.9 226.9 Z"/><path class="land" d="M719.1 216.4 L722.5 200.9 L741.2 199.4 L736.7 210.0 L722.8 217.9 L719.1 216.4 Z"/><path class="land" d="M755.0 193.5 L745.5 187.9 L745.3 184.8 L751.9 185.8 L755.0 193.5 Z"/><path class="land" d="M636.8 117.7 L642.1 108.4 L639.8 101.5 L655.9 83.1 L668.8 78.9 L678.5 83.4 L679.7 90.6 L659.5 102.9 L657.1 108.3 L662.6 113.0 L656.1 118.2 L652.9 128.1 L643.1 130.9 L636.8 117.7 Z"/><path class="land" d="M693.9 127.8 L702.9 130.1 L709.0 138.5 L704.4 139.5 L706.0 143.2 L701.9 146.1 L678.4 145.1 L678.3 136.3 L693.9 127.8 Z"/><path class="land" d="M701.9 146.1 L712.5 142.3 L717.9 148.9 L733.6 152.6 L732.5 159.0 L716.7 167.2 L705.6 163.6 L695.6 168.9 L696.2 164.6 L700.1 164.6 L695.6 158.2 L673.6 157.1 L679.7 149.5 L678.4 145.1 L701.9 146.1 Z"/><path class="land" d="M678.3 136.3 L680.1 148.4 L675.9 154.8 L653.9 149.5 L646.9 139.8 L658.7 132.8 L678.3 136.3 Z"/><path class="land" d="M656.6 158.2 L648.8 164.6 L631.6 162.1 L643.1 160.7 L645.3 155.4 L656.6 158.2 Z"/><path class="land" d="M656.6 158.2 L675.7 159.1 L670.1 165.0 L661.5 167.1 L654.0 163.0 L656.6 158.2 Z"/><path class="land" d="M688.7 157.8 L695.6 158.2 L700.1 164.6 L694.1 168.2 L688.7 157.8 Z"/><path class="land" d="M694.1 168.2 L698.7 168.9 L695.2 174.9 L676.5 174.4 L667.4 165.7 L677.1 158.3 L688.7 157.8 L694.1 168.2 Z"/><path class="land" d="M688.3 129.9 L678.3 136.3 L670.2 128.3 L682.9 127.0 L688.3 129.9 Z"/><path class="land" d="M691.0 122.9 L693.9 127.8 L688.3 129.9 L670.2 128.3 L675.1 121.8 L691.0 122.9 Z"/><path class="land" d="M693.3 115.3 L691.0 122.9 L681.0 121.7 L677.8 116.4 L693.3 115.3 Z"/><path class="land" d="M647.1 136.9 L650.1 146.9 L640.8 150.1 L645.3 155.4 L643.1 160.7 L624.9 160.1 L627.0 154.8 L620.1 150.6 L623.7 137.2 L633.1 132.3 L647.1 136.9 Z"/><path class="land" d="M676.5 183.8 L676.5 174.4 L695.2 174.9 L693.3 181.3 L676.5 183.8 Z"/><path class="land" d="M687.6 206.6 L682.4 208.1 L678.4 206.7 L679.0 205.1 L687.6 206.6 Z"/><path class="land" d="M676.5 183.8 L688.7 183.0 L675.4 187.9 L680.1 197.7 L677.1 196.7 L675.0 202.5 L667.2 190.3 L676.5 183.8 Z"/><path class="land" d="M749.2 199.6 L722.5 200.9 L720.5 204.7 L715.7 201.0 L699.0 203.5 L692.1 201.5 L687.2 190.9 L711.7 181.3 L727.8 185.3 L742.1 182.9 L749.3 190.0 L749.2 199.6 Z"/><path class="land" d="M687.1 182.0 L693.3 181.3 L696.6 184.0 L687.9 188.3 L687.1 182.0 Z"/><path class="land" d="M670.1 185.7 L667.2 190.3 L664.7 187.9 L665.8 178.7 L670.1 185.7 Z"/><path class="land" d="M655.2 164.3 L664.6 169.1 L652.5 170.7 L661.5 179.5 L645.5 169.5 L655.2 164.3 Z"/><path class="land" d="M632.0 160.5 L634.5 164.4 L620.1 165.2 L622.5 160.4 L632.0 160.5 Z"/><path class="land" d="M619.3 150.8 L620.6 153.1 L618.9 152.9 L619.3 150.8 Z"/><path class="land" d="M620.5 148.1 L618.9 152.9 L608.4 146.8 L616.6 145.5 L620.5 148.1 Z"/><path class="land" d="M623.0 138.0 L620.5 148.1 L611.0 146.0 L615.7 139.4 L623.0 138.0 Z"/><path class="land" d="M569.9 181.8 L578.7 183.7 L573.8 200.8 L570.3 200.7 L568.2 193.7 L569.9 181.8 Z"/><path class="land" d="M575.2 199.9 L578.7 183.7 L569.9 181.8 L568.7 177.5 L573.4 174.7 L610.0 179.5 L592.8 201.5 L582.1 204.2 L575.2 199.9 Z"/><path class="land" d="M579.3 136.5 L577.4 142.6 L566.7 144.2 L567.7 136.4 L574.8 131.7 L574.8 135.8 L579.3 136.5 Z"/><path class="land" d="M1148.2 416.0 L1157.1 423.7 L1146.8 416.0 L1148.2 416.0 Z"/><path class="land" d="M1139.7 379.5 L1139.0 380.9 L1137.7 378.6 L1139.7 379.5 Z"/><path class="land" d="M1136.4 371.4 L1138.4 377.0 L1135.3 371.4 L1136.4 371.4 Z"/><path class="land" d="M1134.5 375.5 L1132.8 377.0 L1132.3 374.9 L1134.5 375.5 Z"/><path class="land" d="M1127.9 367.7 L1133.1 372.3 L1127.4 368.0 L1127.9 367.7 Z"/><path class="land" d="M1123.8 366.5 L1125.1 367.8 L1121.8 364.9 L1123.8 366.5 Z"/><path class="land" d="M1195.1 482.4 L1182.2 496.0 L1184.1 492.8 L1179.4 489.3 L1182.3 481.2 L1175.5 470.4 L1186.5 481.9 L1195.1 482.4 Z"/><path class="land" d="M1155.6 514.6 L1176.0 493.0 L1180.8 496.2 L1168.7 513.4 L1155.6 514.6 Z"/><path class="land" d="M1092.3 494.2 L1093.0 503.2 L1086.8 504.5 L1082.5 493.8 L1092.3 494.2 Z"/><path class="land" d="M1020.5 461.7 L1012.2 468.0 L993.4 472.5 L983.4 469.2 L986.0 461.7 L977.8 438.7 L980.8 439.3 L979.1 424.9 L1002.9 414.4 L1019.0 393.8 L1032.1 396.6 L1035.4 387.4 L1041.9 385.8 L1041.2 382.0 L1055.0 384.8 L1051.7 396.7 L1067.4 406.9 L1075.1 380.3 L1079.7 395.0 L1084.6 396.6 L1088.0 411.6 L1102.4 424.6 L1111.9 446.2 L1100.0 481.4 L1087.7 487.5 L1083.4 483.2 L1078.7 486.6 L1068.8 483.6 L1060.4 474.5 L1060.7 469.9 L1056.1 473.2 L1059.4 464.3 L1053.3 471.8 L1047.6 463.2 L1037.8 459.0 L1020.5 461.7 Z"/><path class="land" d="M872.6 311.6 L867.8 317.5 L867.2 302.9 L869.5 305.0 L872.6 311.6 Z"/><path class="land" d="M964.9 271.3 L962.1 266.8 L969.3 264.2 L967.8 269.4 L964.9 271.3 Z"/><path class="land" d="M867.5 180.0 L866.6 170.3 L874.9 168.0 L877.3 161.2 L883.9 162.4 L892.5 153.8 L903.2 162.9 L903.2 168.9 L917.7 172.9 L921.2 178.6 L949.9 182.9 L964.1 179.4 L972.8 174.7 L972.9 169.6 L998.9 163.6 L993.5 158.4 L985.0 158.2 L988.9 151.5 L997.6 150.6 L1002.5 143.7 L1000.6 140.7 L1007.5 138.1 L1019.8 140.6 L1025.5 152.0 L1036.6 159.5 L1050.1 156.9 L1043.7 169.5 L1036.8 170.1 L1035.5 179.8 L1033.3 177.6 L1003.5 193.1 L1005.5 185.3 L991.8 193.7 L999.0 199.6 L1007.9 198.5 L997.2 208.1 L1006.4 220.3 L1005.6 233.4 L995.5 247.3 L969.3 259.2 L968.1 263.2 L951.1 251.8 L938.8 255.7 L939.3 260.0 L930.8 256.4 L928.9 249.1 L925.3 249.7 L928.9 236.1 L920.8 232.7 L920.4 228.7 L896.0 236.9 L862.5 220.9 L863.0 210.3 L854.0 204.4 L845.6 191.0 L867.5 180.0 Z"/><path class="land" d="M1005.0 244.4 L1003.9 253.9 L1002.5 257.0 L1000.4 251.0 L1005.0 244.4 Z"/><path class="land" d="M622.8 166.3 L646.0 164.3 L646.5 167.8 L641.1 168.6 L642.0 173.4 L661.3 187.5 L661.0 189.6 L656.2 187.2 L656.8 193.0 L652.3 196.8 L651.4 188.7 L634.0 174.1 L624.8 174.9 L622.8 166.3 Z"/><path class="land" d="M641.4 197.9 L651.7 195.6 L650.3 201.7 L641.4 197.9 Z"/><path class="land" d="M627.2 185.3 L632.7 187.0 L629.4 193.0 L627.2 185.3 Z"/><path class="land" d="M633.1 132.3 L628.4 132.4 L627.0 126.4 L635.3 121.9 L633.1 132.3 Z"/><path class="land" d="M641.2 128.0 L640.3 133.0 L636.8 130.8 L636.3 129.3 L641.2 128.0 Z"/><path class="land" d="M581.1 133.9 L574.8 135.8 L574.8 131.7 L581.1 133.9 Z"/><path class="land" d="M589.7 138.2 L579.5 125.5 L583.3 118.5 L590.0 118.5 L586.4 122.6 L593.5 122.1 L589.6 128.5 L605.6 140.8 L604.8 146.2 L580.7 150.5 L588.6 145.7 L582.4 143.6 L585.9 142.4 L584.7 137.9 L589.7 138.2 Z"/><path class="land" d="M551.6 88.9 L554.6 94.0 L537.8 100.1 L524.1 98.4 L527.4 96.7 L520.1 94.9 L525.9 93.0 L518.9 92.1 L551.6 88.9 Z"/><path class="land" d="M754.7 181.9 L761.9 182.1 L768.0 187.9 L762.9 195.2 L760.2 190.5 L755.0 193.5 L752.0 189.3 L749.9 184.2 L755.0 184.9 L754.7 181.9 Z"/><path class="land" d="M752.5 190.9 L751.5 193.1 L749.3 190.0 L752.5 190.9 Z"/><path class="land" d="M733.2 175.9 L751.6 179.4 L755.5 184.4 L738.5 183.1 L733.2 175.9 Z"/><path class="land" d="M1002.8 292.0 L1001.1 289.1 L1005.1 290.6 L1002.8 292.0 Z"/><path class="land" d="M1010.0 305.9 L1009.8 298.9 L1011.1 301.2 L1013.6 297.6 L1010.0 305.9 Z"/><path class="land" d="M1021.3 308.2 L1018.0 318.9 L1012.0 310.4 L1006.4 312.8 L1018.0 303.1 L1021.3 308.2 Z"/><path class="land" d="M999.0 300.1 L990.6 308.4 L998.4 297.0 L999.0 300.1 Z"/><path class="land" d="M1007.8 271.2 L1005.8 285.9 L1013.2 287.9 L1013.6 292.6 L1002.1 287.6 L999.7 281.8 L1002.4 270.1 L1007.8 271.2 Z"/><path class="land" d="M1006.7 300.6 L1006.3 295.1 L1010.4 296.2 L1006.7 300.6 Z"/><path class="land" d="M1014.2 292.6 L1019.3 298.3 L1016.7 297.3 L1016.0 301.7 L1014.2 292.6 Z"/><path class="land" d="M933.6 315.6 L943.2 319.1 L947.4 335.1 L938.0 329.6 L933.6 315.6 Z"/><path class="land" d="M992.9 324.4 L986.2 323.7 L982.1 334.6 L966.1 334.9 L980.7 322.9 L984.5 323.7 L989.1 313.8 L997.3 319.6 L992.9 324.4 Z"/><path class="land" d="M984.8 319.4 L984.5 323.7 L982.2 324.9 L980.7 322.9 L984.8 319.4 Z"/><path class="land" d="M646.0 164.3 L654.0 163.0 L655.2 164.3 L651.1 168.3 L645.7 168.1 L646.0 164.3 Z"/><path class="land" d="M696.7 76.4 L699.9 84.3 L696.8 87.1 L703.8 104.4 L693.6 111.4 L676.2 113.9 L671.1 110.6 L671.8 101.3 L684.7 94.0 L678.6 89.2 L678.5 83.4 L668.8 78.9 L682.5 80.7 L692.4 74.9 L696.7 76.4 Z"/><path class="land" d="M675.2 154.6 L659.5 159.6 L656.3 156.9 L661.8 153.0 L675.2 154.6 Z"/><path class="land" d="M650.1 146.9 L658.5 149.7 L662.8 153.0 L647.8 156.6 L641.7 152.8 L640.8 150.1 L650.1 146.9 Z"/><path class="land" d="M721.4 285.5 L722.8 275.9 L728.0 272.0 L730.9 279.8 L743.6 292.0 L733.4 285.1 L721.4 285.5 Z"/><path class="land" d="M1072.9 192.0 L1067.5 207.3 L1052.6 213.6 L1050.3 209.3 L1036.6 212.0 L1040.0 214.8 L1037.8 221.2 L1034.0 221.3 L1031.4 214.2 L1042.1 206.1 L1052.3 205.8 L1055.7 199.1 L1064.8 195.6 L1067.7 184.4 L1071.2 183.7 L1072.9 192.0 Z"/><path class="land" d="M1073.2 167.9 L1084.4 172.3 L1085.1 176.6 L1066.5 183.0 L1073.2 167.9 Z"/><path class="land" d="M1041.2 213.6 L1046.3 210.2 L1049.2 212.3 L1043.4 216.4 L1041.2 213.6 Z"/><path class="land" d="M406.1 416.2 L406.9 423.5 L414.0 424.5 L415.3 430.5 L419.0 430.7 L414.3 443.5 L404.6 442.5 L407.4 435.1 L391.0 424.1 L394.0 414.2 L406.1 416.2 Z"/><path class="land" d="M773.3 268.2 L777.0 277.1 L773.9 281.1 L744.9 292.3 L742.0 282.5 L744.6 273.6 L756.7 276.0 L763.7 269.7 L773.3 268.2 Z"/><path class="land" d="M716.5 229.1 L725.0 226.7 L723.3 221.0 L730.7 218.5 L749.0 229.8 L758.2 230.4 L767.2 239.2 L773.3 253.1 L784.0 254.2 L783.3 264.4 L763.7 269.7 L756.7 276.0 L744.6 273.6 L742.6 278.2 L715.4 234.0 L716.5 229.1 Z"/><path class="land" d="M713.2 207.6 L709.8 206.3 L715.3 205.2 L713.2 207.6 Z"/><path class="land" d="M709.9 209.4 L711.3 207.2 L713.3 207.9 L709.9 209.4 Z"/><path class="land" d="M592.8 207.1 L595.6 218.1 L571.1 231.0 L570.7 237.5 L562.0 238.4 L550.8 258.8 L543.3 259.1 L551.9 240.8 L568.1 226.9 L571.1 214.4 L580.2 204.9 L592.8 207.1 Z"/><path class="land" d="M722.9 256.9 L683.3 256.9 L683.9 220.7 L714.2 222.1 L716.4 228.6 L713.8 234.9 L707.7 227.6 L722.9 256.9 Z"/><path class="land" d="M683.1 219.5 L683.3 264.4 L679.5 266.0 L652.9 251.6 L647.1 255.0 L634.3 247.9 L631.1 241.4 L633.2 221.5 L638.3 214.8 L663.6 225.7 L669.5 216.4 L683.1 219.5 Z"/><path class="land" d="M759.3 309.8 L749.9 321.1 L731.9 327.1 L720.5 323.2 L709.8 310.6 L721.4 285.5 L726.4 283.5 L738.7 289.2 L739.2 298.3 L745.6 305.3 L759.3 309.8 Z"/><path class="land" d="M741.2 292.6 L744.4 293.2 L742.6 298.7 L739.2 298.3 L741.2 292.6 Z"/><path class="land" d="M763.2 296.9 L759.3 309.8 L745.6 305.3 L741.9 300.1 L743.8 296.7 L747.1 300.5 L763.2 296.9 Z"/><path class="land" d="M713.0 343.6 L698.6 345.1 L704.2 325.7 L714.9 326.6 L716.8 332.8 L713.0 343.6 Z"/><path class="land" d="M701.4 344.3 L702.5 348.6 L696.7 350.7 L697.6 346.1 L701.4 344.3 Z"/><path class="land" d="M661.9 178.9 L654.9 173.6 L653.2 169.1 L664.6 170.5 L661.9 178.9 Z"/><path class="land" d="M674.6 180.1 L676.5 183.8 L668.7 184.8 L669.2 181.1 L674.6 180.1 Z"/><path class="land" d="M662.8 166.6 L675.7 171.6 L675.2 179.6 L664.1 175.6 L662.8 166.6 Z"/><path class="land" d="M666.9 179.1 L664.6 181.8 L661.5 179.5 L664.1 175.6 L666.9 179.1 Z"/><path class="land" d="M668.6 181.9 L668.8 176.7 L672.6 178.8 L671.9 180.4 L668.6 181.9 Z"/><path class="land" d="M393.5 301.9 L397.0 299.0 L396.9 301.8 L393.5 301.9 Z"/><path class="land" d="M702.8 326.7 L699.1 322.6 L693.3 323.3 L679.6 307.4 L686.0 300.7 L689.2 304.2 L704.5 302.9 L706.9 294.8 L710.7 294.0 L713.2 307.2 L709.8 310.6 L717.7 319.2 L711.3 325.7 L702.8 326.7 Z"/></g>
<g></g>
<g></g>



<g id="pc-clean-overlay">
<style>
.pc-red-zone{fill:#b3272f;stroke:#ff6970;stroke-width:1.7;opacity:.25}.pc-red-core{fill:#ff4048;stroke:#ffd0d0;stroke-width:1;opacity:.92}.pc-yellow-zone{fill:#b59a2f;stroke:#f2d96f;stroke-width:1.7;stroke-dasharray:6 5;opacity:.19}.pc-black-zone{fill:#050505;stroke:#aaa;stroke-width:1.6;opacity:.38}.pc-green-zone{fill:#2f8754;stroke:#84e0a4;stroke-width:1.3;opacity:.18}.pc-white-zone{fill:#b7c3cc;stroke:#e6edf2;stroke-width:1.1;opacity:.10}.pc-blue-zone{fill:#24a8c8;stroke:#75eaff;stroke-width:1.3;opacity:.20}.pc-defense{fill:none;stroke:#d7d1a3;stroke-width:1.9;stroke-dasharray:9 8;opacity:.78}.pc-route{fill:none;stroke:#80909a;stroke-width:1.2;stroke-dasharray:4 9;opacity:.38}.pc-gate{fill:#070809;stroke:#d7d1a3;stroke-width:1.8}.pc-hq{fill:#d7d1a3;stroke:#111;stroke-width:.85}.pc-base{fill:#9eb2c7;stroke:#071016;stroke-width:.85}.pc-bus{fill:#c5ccd2;stroke:#101010;stroke-width:.85}.pc-ash{fill:#9d9d9d;stroke:#111;stroke-width:.85}.pc-node{fill:#47bfd5;stroke:#d8fbff;stroke-width:.9}</style>
<!-- Final calibrated overlay: reduced circular ranges and smaller location markers. -->
<circle class="pc-white-zone" cx="256" cy="154" r="82"/><circle class="pc-green-zone" cx="250" cy="150" r="48"/>
<circle class="pc-yellow-zone" cx="628" cy="153" r="70"/><circle class="pc-red-zone" cx="628" cy="153" r="43"/><circle class="pc-red-core" cx="628" cy="153" r="6"/>
<circle class="pc-yellow-zone" cx="946" cy="204" r="72"/><circle class="pc-red-zone" cx="946" cy="204" r="45"/><circle class="pc-red-core" cx="946" cy="204" r="6"/>
<circle class="pc-yellow-zone" cx="1006" cy="287" r="62"/><circle class="pc-red-zone" cx="1006" cy="287" r="38"/><circle class="pc-red-core" cx="1006" cy="287" r="5.5"/>
<circle class="pc-black-zone" cx="755" cy="286" r="52"/><circle class="pc-black-zone" cx="854" cy="323" r="50"/><circle class="pc-black-zone" cx="1030" cy="492" r="60"/>
<circle class="pc-blue-zone" cx="1024" cy="198" r="28"/><circle class="pc-blue-zone" cx="284" cy="151" r="28"/>
<path class="pc-defense" d="M585 165 C700 155 825 175 940 212"/>
<path class="pc-defense" d="M720 420 C825 390 930 410 1030 470"/>
<path class="pc-defense" d="M190 220 C285 200 365 220 440 270"/>
<path class="pc-route" d="M270 152 C420 178 520 175 628 153"/>
<path class="pc-route" d="M628 153 C755 180 845 178 946 204"/>
<path class="pc-route" d="M946 204 C982 232 998 255 1006 287"/>
<rect class="pc-gate" x="583.5" y="161.5" width="10" height="10" transform="rotate(45 588.5 166.5)"/>
<rect class="pc-gate" x="912.5" y="228.5" width="10" height="10" transform="rotate(45 917.5 233.5)"/>
<rect class="pc-gate" x="331.5" y="244.5" width="10" height="10" transform="rotate(45 336.5 249.5)"/>
<path class="pc-hq" d="M1023 190 l8 15 h-16z"/><path class="pc-hq" d="M606 147 l8 15 h-16z"/>
<path class="pc-base" d="M1066 208 l7 7-7 7-7-7z"/><path class="pc-base" d="M283 154 l7 7-7 7-7-7z"/>
<path class="pc-bus" d="M249 190 h22 v10 h-22z M253 200 a2.6 2.6 0 1 0 .1 0 M267 200 a2.6 2.6 0 1 0 .1 0"/>
<path class="pc-ash" d="M930 442 l10 10-10 10-10-10z M930 446 v12 M924 452 h12"/>
<circle class="pc-node" cx="1030" cy="205" r="3.5"/><circle class="pc-node" cx="284" cy="151" r="3.5"/>
</g>
</svg>