<svg xmlns="http://www.w3.org/2000/svg" viewBox="0 0 1600 900" preserveAspectRatio="xMidYMid meet">
<defs>
  <radialGradient id="bg" cx="50%" cy="48%" r="76%"><stop offset="0" stop-color="#11161a"/><stop offset="0.58" stop-color="#070a0d"/><stop offset="1" stop-color="#020304"/></radialGradient>
  <filter id="soft"><feGaussianBlur stdDeviation="1.2"/></filter>
</defs>
<style>
  .bg{fill:url(#bg)} .grid{stroke:#26313a;stroke-width:1;opacity:.20} .grid.major{stroke:#46545d;opacity:.28}
  .land{fill:#12191d;stroke:#5b686e;stroke-width:2.2;opacity:.82} .land.dim{opacity:.54} .land.sea{fill:none;stroke:#6a7051;stroke-dasharray:10 8;opacity:.62} .land.core{fill:#171d22;stroke:#879097;opacity:.88}
  .label{font:700 26px Consolas,monospace;fill:#d2d7d9;letter-spacing:2px} .note{font:15px Consolas,monospace;fill:#899196;letter-spacing:1px}
  .title{font:700 34px Consolas,monospace;fill:#e7ecee;letter-spacing:3px} .subtitle{font:16px Consolas,monospace;fill:#929b9f;letter-spacing:1.4px}
  .edge{fill:none;stroke:#742a31;stroke-width:5;opacity:.72} .scan{fill:none;stroke:#9aa7aa;stroke-width:1;stroke-dasharray:6 10;opacity:.22}
</style>
<rect class="bg" width="1600" height="900"/>
<path d="M100 0V900" class="grid"/><path d="M200 0V900" class="grid"/><path d="M300 0V900" class="grid"/><path d="M400 0V900" class="grid"/><path d="M500 0V900" class="grid"/><path d="M600 0V900" class="grid"/><path d="M700 0V900" class="grid"/><path d="M800 0V900" class="grid"/><path d="M900 0V900" class="grid"/><path d="M1000 0V900" class="grid"/><path d="M1100 0V900" class="grid"/><path d="M1200 0V900" class="grid"/><path d="M1300 0V900" class="grid"/><path d="M1400 0V900" class="grid"/><path d="M1500 0V900" class="grid"/><path d="M0 100H1600" class="grid"/><path d="M0 200H1600" class="grid"/><path d="M0 300H1600" class="grid"/><path d="M0 400H1600" class="grid"/><path d="M0 500H1600" class="grid"/><path d="M0 600H1600" class="grid"/><path d="M0 700H1600" class="grid"/><path d="M0 800H1600" class="grid"/>
<path class="edge" d="M44 62H1556V838H44Z"/>
<path class="scan" d="M80 180H1520M80 720H1520M240 90V810M1360 90V810"/>
<text x="64" y="118" class="title">EAST ASIA OPERATIONAL SURFACE</text>
<text x="66" y="148" class="subtitle">동아시아 반추상 작전구역도</text>
<polygon points="245,250 540,195 760,255 710,440 430,455 210,390" class="land core"/><text x="320" y="330" class="label">내륙 오염권</text><text x="320" y="354" class="note">INLAND CONTAMINATION</text><rect x="845" y="250" width="260" height="150" rx="18" class="land "/><text x="880" y="325" class="label">한반도·해상 통제</text><text x="880" y="349" class="note">COASTAL CONTROL</text><rect x="1040" y="420" width="300" height="165" rx="18" class="land dim"/><text x="1090" y="500" class="label">일본 후방권</text><text x="1090" y="524" class="note">REAR SUPPORT</text><rect x="650" y="570" width="380" height="135" rx="18" class="land "/><text x="735" y="640" class="label">항만 검문권</text><text x="735" y="664" class="note">PORT QUARANTINE</text><path d="M1010 630 C1130 590 1270 600 1390 670" class="land sea"/><text x="1140" y="710" class="label">해상 감시권</text><text x="1140" y="734" class="note">SEA WATCH</text>
<text x="64" y="824" class="note">U.A.C SEMI-ABSTRACT OPERATIONAL SURFACE / NOT A GEOGRAPHIC COORDINATE MAP</text>
</svg>